<svg width="34" height="34" viewBox="0 0 34 34" fill="none" xmlns="http://www.w3.org/2000/svg">
<path fill-rule="evenodd" clip-rule="evenodd" d="M16.9337 3.33333C16.0568 3.33333 15.1885 3.50633 14.3786 3.84242C13.5692 4.17828 12.834 4.67042 12.215 5.29068C11.6239 5.88637 11.1473 6.58561 10.8089 7.35357C10.5073 8.03811 9.78654 8.43784 9.04613 8.33121C7.76293 8.14639 6.45811 8.46723 5.40692 9.22602C4.35573 9.98482 3.64036 11.1222 3.41173 12.3984C3.1831 13.6745 3.45907 14.9895 4.18144 16.0661C4.90381 17.1426 6.01608 17.8965 7.28363 18.1687C8.05175 18.3336 8.60039 19.0126 8.60039 19.7982V30.0149H25.2671V19.7982C25.2671 19.0126 25.8157 18.3336 26.5838 18.1687C27.8514 17.8965 28.9636 17.1426 29.686 16.0661C30.4084 14.9895 30.6843 13.6745 30.4557 12.3984C30.2271 11.1222 29.5117 9.98482 28.4605 9.22602C27.4093 8.46723 26.1045 8.14639 24.8213 8.33121C24.0809 8.43784 23.3602 8.03811 23.0585 7.35357C22.7201 6.58555 22.2435 5.88627 21.6524 5.29055C21.0334 4.67035 20.2982 4.17826 19.4888 3.84242C18.6789 3.50633 17.8106 3.33333 16.9337 3.33333ZM13.1011 0.763625C14.316 0.259496 15.6184 0 16.9337 0C18.2491 0 19.5515 0.259496 20.7664 0.763625C21.9813 1.26775 23.0848 2.00661 24.0137 2.93788L24.0164 2.9406C24.615 3.54341 25.1346 4.2176 25.5641 4.94683C27.2948 4.95306 28.9919 5.49855 30.4115 6.52327C32.1635 7.78794 33.3558 9.68366 33.7368 11.8105C34.1179 13.9374 33.6579 16.1291 32.454 17.9234C31.5076 19.3337 30.1598 20.4118 28.6004 21.0289V31.6816C28.6004 32.602 27.8542 33.3482 26.9337 33.3482H6.93372C6.01325 33.3482 5.26706 32.602 5.26706 31.6816V21.0289C3.70764 20.4118 2.35982 19.3337 1.41349 17.9234C0.209545 16.1291 -0.250415 13.9374 0.13064 11.8105C0.511694 9.68365 1.70397 7.78794 3.45595 6.52327C4.87555 5.49855 6.57268 4.95306 8.3033 4.94683C8.73288 4.2176 9.2525 3.54341 9.85101 2.94061L9.85372 2.93788C10.7826 2.00661 11.8861 1.26775 13.1011 0.763625Z" fill="#7ECE4C"/>
<path fill-rule="evenodd" clip-rule="evenodd" d="M5.26706 25.0149C5.26706 24.0944 6.01325 23.3482 6.93372 23.3482H26.9337C27.8542 23.3482 28.6004 24.0944 28.6004 25.0149C28.6004 25.9354 27.8542 26.6816 26.9337 26.6816H6.93372C6.01325 26.6816 5.26706 25.9354 5.26706 25.0149Z" fill="#7ECE4C"/>
</svg>
