<svg width="39" height="39" viewBox="0 0 39 39" fill="none" xmlns="http://www.w3.org/2000/svg">
<path fill-rule="evenodd" clip-rule="evenodd" d="M15.1639 10.9117C16.3621 10.4158 17.6461 10.1611 18.9425 10.1621C20.239 10.1632 21.5226 10.4199 22.72 10.9176C23.9174 11.4154 25.0052 12.1445 25.9212 13.0632C26.8373 13.982 27.5636 15.0724 28.0588 16.2722C28.554 17.4721 28.8084 18.7578 28.8074 20.0561C28.8064 21.3544 28.55 22.6397 28.0529 23.8388C27.7474 24.5757 27.3547 25.2711 26.8844 25.9107C26.7979 26.0997 26.6769 26.2767 26.5215 26.4324C26.4598 26.4941 26.3948 26.5504 26.327 26.6013C26.1928 26.753 26.0539 26.9008 25.9103 27.0444C24.44 28.5164 22.1854 29.9721 19.7719 31.3018C17.3234 32.6506 14.5735 33.9433 12.0112 35.0627C9.44504 36.1838 7.0445 37.141 5.28666 37.8175C4.40709 38.156 3.68684 38.4249 3.18527 38.6096C2.93446 38.7019 2.73822 38.7733 2.60398 38.8218L2.45002 38.8772L2.3959 38.8965C2.3959 38.8965 2.39454 38.897 1.79469 37.2031C0.103316 36.6019 0.103486 36.6014 0.103486 36.6014L0.108683 36.5868L0.123105 36.5463L0.178445 36.3923C0.226885 36.258 0.298136 36.0617 0.390384 35.8107C0.574855 35.3089 0.843448 34.5882 1.18166 33.7081C1.85758 31.9492 2.81402 29.547 3.93478 26.9783C5.05381 24.4136 6.3464 21.6604 7.69602 19.2077C9.0269 16.789 10.4842 14.5294 11.9583 13.0532C12.8758 12.1359 13.9657 11.4076 15.1639 10.9117ZM1.79469 37.2031L0.103486 36.6014C-0.128079 37.2546 0.0359887 37.9835 0.525392 38.4737C1.0148 38.964 1.74347 39.1282 2.3959 38.8965L1.79469 37.2031ZM4.87081 34.1239C6.47714 33.4955 8.47171 32.6873 10.5758 31.7681C13.0839 30.6724 15.725 29.4286 18.0416 28.1524C19.9557 27.0979 21.5604 26.0683 22.6823 25.1296L19.5682 22.0111C18.8673 21.3092 18.8673 20.1713 19.5682 19.4694C20.2691 18.7675 21.4054 18.7675 22.1064 19.4694L24.8374 22.2043C25.0883 21.5156 25.2172 20.7877 25.2178 20.0533C25.2185 19.227 25.0566 18.4088 24.7414 17.6452C24.4263 16.8816 23.964 16.1876 23.3811 15.6029C22.7981 15.0182 22.1058 14.5542 21.3438 14.2374C20.5817 13.9207 19.7648 13.7573 18.9397 13.7566C18.1146 13.756 17.2975 13.9181 16.5349 14.2337C15.7725 14.5492 15.0796 15.012 14.4958 15.5956" fill="#7ECE4C"/>
<path fill-rule="evenodd" clip-rule="evenodd" d="M25.6058 11.1404C26.8516 10.2094 28.8294 8.98625 30.9239 8.98625C33.4405 8.98625 35.4043 10.1469 36.67 11.1965C37.3108 11.728 37.8053 12.257 38.1421 12.6557C38.3114 12.8561 38.4433 13.0266 38.5364 13.1521C38.583 13.215 38.6201 13.2668 38.6474 13.3058L38.6811 13.3545L38.6924 13.3713L38.6967 13.3777L38.6985 13.3804C38.6985 13.3804 38.7001 13.3828 37.2056 14.378C38.7001 15.3732 38.6993 15.3744 38.6993 15.3744L38.6967 15.3783L38.6924 15.3847L38.6811 15.4015L38.6474 15.4502C38.6201 15.4892 38.583 15.541 38.5364 15.6039C38.4433 15.7294 38.3114 15.8999 38.1421 16.1003C37.8053 16.499 37.3108 17.028 36.67 17.5595C35.4043 18.6091 33.4405 19.7698 30.9239 19.7698C28.4073 19.7698 26.4434 18.6091 25.1778 17.5595C24.5369 17.028 24.0424 16.499 23.7057 16.1003C23.5364 15.8999 23.4044 15.7294 23.3114 15.6039C23.2648 15.541 23.2277 15.4892 23.2004 15.4502L23.1667 15.4015L23.1554 15.3847L23.1511 15.3783L23.1493 15.3756C23.1493 15.3756 23.1477 15.3732 24.6422 14.378C23.3279 13.1541 23.3285 13.1534 23.3285 13.1534L23.3306 13.1511L23.3346 13.1469L23.3462 13.1345L23.3839 13.0948C23.4154 13.0619 23.4594 13.0164 23.515 12.96C23.6261 12.8475 23.7843 12.691 23.9823 12.5052C24.376 12.1355 24.9373 11.64 25.6058 11.1404ZM24.6422 14.378L23.3285 13.1534C22.763 13.7623 22.6879 14.6808 23.1477 15.3732L24.6422 14.378ZM27.1409 14.5049C27.2429 14.5993 27.3518 14.6953 27.4673 14.791C28.3688 15.5387 29.5459 16.1753 30.9239 16.1753C32.3019 16.1753 33.479 15.5387 34.3805 14.791C34.5482 14.652 34.702 14.5125 34.841 14.378C34.702 14.2435 34.5482 14.104 34.3805 13.965C33.479 13.2173 32.3019 12.5808 30.9239 12.5808C30.075 12.5808 28.9119 13.1549 27.7527 14.0211C27.5347 14.184 27.3295 14.3476 27.1409 14.5049ZM37.2056 14.378L38.6993 15.3744C39.0997 14.7714 39.1005 13.9857 38.7001 13.3828L37.2056 14.378Z" fill="#7ECE4C"/>
<path fill-rule="evenodd" clip-rule="evenodd" d="M25.636 0.300697L24.6422 1.79725L23.6483 0.300697C24.2504 -0.100232 25.0339 -0.100232 25.636 0.300697ZM24.6422 14.378C23.6483 15.8746 23.6472 15.8738 23.6472 15.8738L23.6433 15.8712L23.6369 15.8669L23.6201 15.8555L23.5715 15.8218C23.5325 15.7944 23.4808 15.7573 23.418 15.7107C23.2926 15.6174 23.1224 15.4853 22.9222 15.3158C22.5241 14.9786 21.9958 14.4834 21.4651 13.8417C20.4169 12.5743 19.2579 10.6077 19.2579 8.08763C19.2579 5.56753 20.4169 3.60099 21.4651 2.33359C21.9958 1.69186 22.5241 1.19668 22.9222 0.859466C23.1224 0.689944 23.2926 0.557805 23.418 0.464599C23.4808 0.417931 23.5325 0.380828 23.5715 0.353489L23.6201 0.31976L23.6369 0.30839L23.6433 0.304083L23.646 0.302275C23.646 0.302275 23.6483 0.300697 24.6422 1.79725C25.636 0.300697 25.636 0.300697 25.636 0.300697L25.6384 0.302275L25.6411 0.304083L25.6475 0.30839L25.6642 0.31976L25.7129 0.353489C25.7518 0.380828 25.8036 0.417931 25.8664 0.464599C25.9917 0.557805 26.162 0.689944 26.3621 0.859466C26.7602 1.19668 27.2885 1.69186 27.8192 2.33359C28.8674 3.60099 30.0265 5.56753 30.0265 8.08763C30.0265 10.2014 28.8075 12.1804 27.8734 13.4291C27.3735 14.0974 26.8776 14.6569 26.5076 15.049C26.3216 15.2461 26.1649 15.4036 26.0522 15.5142C25.9957 15.5695 25.9501 15.6133 25.917 15.6447L25.8771 15.6823L25.8646 15.6939L25.8603 15.6979L25.8587 15.6994C25.8587 15.6994 25.8573 15.7007 24.6422 14.378ZM24.6422 14.378L23.6472 15.8738C24.3356 16.3322 25.2489 16.2612 25.8573 15.7007L24.6422 14.378ZM24.52 11.8807C24.6762 11.6939 24.8387 11.4904 25.0005 11.2741C25.8612 10.1234 26.437 8.95732 26.437 8.08763C26.437 6.70769 25.8013 5.52904 25.0547 4.62626C24.9158 4.45832 24.7765 4.30432 24.6422 4.16514C24.5078 4.30432 24.3686 4.45832 24.2297 4.62626C23.4831 5.52904 22.8474 6.70769 22.8474 8.08763C22.8474 9.46756 23.4831 10.6462 24.2297 11.549C24.3269 11.6665 24.4242 11.7772 24.52 11.8807Z" fill="#7ECE4C"/>
</svg>
