<svg width="38" height="38" viewBox="0 0 38 38" fill="none" xmlns="http://www.w3.org/2000/svg">
<path fill-rule="evenodd" clip-rule="evenodd" d="M20.727 7.00013C22.078 6.99331 23.4169 7.25437 24.6663 7.76821C25.9158 8.28205 27.0509 9.03849 28.0062 9.99377C28.9615 10.9491 29.7179 12.0842 30.2318 13.3337C30.7456 14.5831 31.0067 15.922 30.9999 17.273C30.993 18.624 30.7185 19.9602 30.192 21.2044C29.6668 22.4458 28.9011 23.571 27.9393 24.5153L24.5153 27.9393C23.571 28.9011 22.4458 29.6668 21.2044 30.192C19.9602 30.7185 18.624 30.993 17.273 30.9999C15.922 31.0067 14.5831 30.7456 13.3337 30.2318C12.0842 29.7179 10.9491 28.9615 9.99377 28.0062C9.03849 27.0509 8.28205 25.9158 7.76821 24.6663C7.25437 23.4169 6.99331 22.078 7.00013 20.727C7.00695 19.376 7.28152 18.0398 7.80796 16.7956C8.33322 15.5542 9.09882 14.429 10.0607 13.4847L13.4847 10.0607C14.429 9.09882 15.5542 8.33322 16.7956 7.80796C18.0398 7.28152 19.376 7.00695 20.727 7.00013ZM14.7053 11.2695L15.92 12.4843L12.472 15.9323C11.8314 16.56 11.3216 17.3085 10.9721 18.1344C10.6227 18.9604 10.4404 19.8475 10.4358 20.7443C10.4313 21.6412 10.6046 22.5301 10.9457 23.3595C11.2869 24.189 11.789 24.9426 12.4232 25.5768C13.0574 26.211 13.811 26.7131 14.6405 27.0543C15.4699 27.3954 16.3588 27.5687 17.2557 27.5642C18.1525 27.5596 19.0396 27.3773 19.8655 27.0279C20.6915 26.6784 21.44 26.1686 22.0678 25.5281L22.0799 25.5157L25.528 22.0677C26.1686 21.44 26.6784 20.6915 27.0279 19.8655C27.3773 19.0396 27.5596 18.1525 27.5642 17.2557C27.5687 16.3588 27.3954 15.4699 27.0543 14.6405C26.7131 13.811 26.211 13.0574 25.5768 12.4232C24.9426 11.789 24.189 11.2869 23.3595 10.9457C22.5301 10.6046 21.6412 10.4313 20.7443 10.4358C19.8475 10.4404 18.9604 10.6227 18.1344 10.9721C17.3085 11.3216 16.56 11.8314 15.9322 12.4719L14.7053 11.2695Z" fill="#E44DBA"/>
<path fill-rule="evenodd" clip-rule="evenodd" d="M22.5 8C23.3284 8 24 8.74619 24 9.66667V26.3333C24 27.2538 23.3284 28 22.5 28C21.6716 28 21 27.2538 21 26.3333V9.66667C21 8.74619 21.6716 8 22.5 8Z" fill="#E44DBA"/>
<path fill-rule="evenodd" clip-rule="evenodd" d="M15.5 9C16.3284 9 17 9.7835 17 10.75V28.25C17 29.2165 16.3284 30 15.5 30C14.6716 30 14 29.2165 14 28.25V10.75C14 9.7835 14.6716 9 15.5 9Z" fill="#E44DBA"/>
<path fill-rule="evenodd" clip-rule="evenodd" d="M26.7291 0.17907C27.2179 -0.0608781 27.7905 -0.0596227 28.2783 0.182466L30.6842 1.37664C31.1643 1.6182 31.6936 1.74594 32.231 1.74996H34.5001C35.4666 1.74996 36.25 2.53344 36.25 3.49992V5.77486C36.25 6.33025 36.371 6.84423 36.6021 7.27489C36.6108 7.29122 36.6193 7.30768 36.6276 7.32428L37.8175 9.72172C38.0596 10.2095 38.0609 10.7821 37.8209 11.2709C37.581 11.7597 37.1272 12.1089 36.5932 12.2157L27.8434 13.9657C26.8957 14.1552 25.9738 13.5406 25.7843 12.5929C25.7613 12.4778 25.7501 12.3631 25.75 12.25C25.6369 12.2499 25.5222 12.2387 25.4071 12.2157C24.4594 12.0262 23.8448 11.1043 24.0343 10.1566L25.7843 1.40676C25.8911 0.872823 26.2403 0.419018 26.7291 0.17907ZM27.5436 10.4564L33.667 9.23174L33.5039 8.90315C32.9752 7.90611 32.7501 6.82014 32.7501 5.77486V5.24987H32.2145C31.138 5.24331 30.0776 4.98854 29.1157 4.50546L28.7683 4.333L27.5436 10.4564Z" fill="#E44DBA"/>
<path fill-rule="evenodd" clip-rule="evenodd" d="M12.25 25.75C12.2499 25.6369 12.2387 25.5222 12.2157 25.4071C12.0262 24.4594 11.1043 23.8448 10.1566 24.0343L1.40676 25.7843C0.872823 25.8911 0.419018 26.2403 0.17907 26.7291C-0.0608781 27.2179 -0.0596227 27.7905 0.182466 28.2783L1.37244 30.6757L1.37667 30.6842C1.61822 31.1643 1.74594 31.6936 1.74996 32.231V34.5001C1.74996 35.4666 2.53344 36.25 3.49992 36.25H5.76899C6.3064 36.2541 6.83569 36.3818 7.31582 36.6233L9.72172 37.8175C10.2095 38.0596 10.7821 38.0609 11.2709 37.8209C11.7597 37.581 12.1089 37.1272 12.2157 36.5932L13.9657 27.8434C14.1552 26.8957 13.5406 25.9738 12.5929 25.7843C12.4778 25.7613 12.3631 25.7501 12.25 25.75ZM10.4564 27.5436L4.333 28.7683L4.50546 29.1157C4.98854 30.0776 5.24328 31.138 5.24984 32.2145L5.24991 32.2251L5.24987 32.7501H5.78553C6.86194 32.7567 7.92232 33.0115 8.88422 33.4945L9.23174 33.667L10.4564 27.5436Z" fill="#E44DBA"/>
</svg>
