<svg width="26" height="36" viewBox="0 0 26 36" fill="none" xmlns="http://www.w3.org/2000/svg">
<path fill-rule="evenodd" clip-rule="evenodd" d="M2.94329 10.0992C3.80899 9.97579 4.61079 10.5776 4.73416 11.4433L7.50525 30.8884C7.55902 31.2688 7.7493 31.6167 8.04061 31.8673C8.33191 32.1178 8.70438 32.2539 9.08858 32.2501L9.10417 32.2499L16.3081 32.25C16.6923 32.2538 17.0648 32.1178 17.3561 31.8673C17.647 31.6171 17.8372 31.2697 17.8912 30.8898L20.5985 11.4483C20.7191 10.5822 21.5189 9.97786 22.385 10.0985C23.2511 10.2191 23.8555 11.0189 23.7349 11.885L21.0274 31.3284L21.0269 31.3316C20.8656 32.4729 20.2948 33.5166 19.4209 34.2682C18.5491 35.0179 17.4351 35.4259 16.2855 35.4167H9.11113C7.96158 35.4259 6.84757 35.0179 5.97581 34.2682C5.10214 33.5168 4.5314 32.4735 4.36989 31.3326L1.59917 11.89C1.4758 11.0243 2.07758 10.2225 2.94329 10.0992Z" fill="#83BFE0"/>
<path fill-rule="evenodd" clip-rule="evenodd" d="M0 11.6667C0 10.7922 0.708882 10.0833 1.58333 10.0833H23.75C24.6245 10.0833 25.3333 10.7922 25.3333 11.6667C25.3333 12.5411 24.6245 13.25 23.75 13.25H1.58333C0.708882 13.25 0 12.5411 0 11.6667Z" fill="#83BFE0"/>
<path fill-rule="evenodd" clip-rule="evenodd" d="M8.70833 23.5377C7.55924 23.5377 6.42164 23.7663 5.3618 24.2104C4.55526 24.5482 3.62753 24.1683 3.28964 23.3618C2.95176 22.5553 3.33167 21.6275 4.1382 21.2896C5.58556 20.6833 7.1391 20.371 8.70833 20.371C10.2776 20.371 11.8311 20.6833 13.2785 21.2896C14.3383 21.7336 15.4759 21.9623 16.625 21.9623C17.7741 21.9623 18.9117 21.7336 19.9715 21.2896C20.7781 20.9517 21.7058 21.3317 22.0437 22.1382C22.3816 22.9447 22.0017 23.8725 21.1951 24.2104C19.7478 24.8167 18.1942 25.129 16.625 25.129C15.0558 25.129 13.5022 24.8167 12.0549 24.2104C10.995 23.7663 9.85742 23.5377 8.70833 23.5377Z" fill="#83BFE0"/>
<path fill-rule="evenodd" clip-rule="evenodd" d="M12.6882 1.90636C12.8155 1.1429 13.476 0.583328 14.25 0.583328H17.4167C18.2911 0.583328 19 1.29221 19 2.16666C19 3.04111 18.2911 3.74999 17.4167 3.74999H15.5913L14.2285 11.927C14.0847 12.7895 13.2689 13.3722 12.4064 13.2285C11.5438 13.0847 10.9611 12.2689 11.1049 11.4064L12.6882 1.90636Z" fill="#83BFE0"/>
</svg>
