<svg width="37" height="37" viewBox="0 0 37 37" fill="none" xmlns="http://www.w3.org/2000/svg">
<path fill-rule="evenodd" clip-rule="evenodd" d="M31.6032 5.41768C28.6028 2.41397 22.4323 2.75784 17.7336 7.46163L17.7315 7.46372C13.0339 12.1503 12.6952 18.3381 15.7038 21.3236L15.7179 21.3376C17.2711 22.9148 19.6528 23.5781 22.3061 23.1593C22.0624 20.4077 23.2584 17.4365 25.478 15.2144C27.6971 12.9929 30.6737 11.7971 33.4237 12.0386C33.8342 9.37137 33.1735 6.98966 31.6032 5.41768ZM25.8537 25.2213C26.1193 24.7806 26.1374 24.4808 25.9741 23.8663C25.3754 22.2211 25.8912 19.7001 27.925 17.6641C29.9571 15.6298 32.4926 15.111 34.1378 15.711C34.5856 15.8743 35.0808 15.8455 35.5066 15.6314C35.9325 15.4173 36.2513 15.0369 36.3878 14.5798C37.6225 10.4471 37.0608 5.98187 34.0503 2.96803C29.1609 -1.92662 20.7285 -0.434909 15.2876 5.01093C9.84912 10.4376 8.35303 18.8977 13.2605 23.777C16.2571 26.8134 20.7415 27.3721 24.8533 26.1159C25.4232 25.8521 25.6527 25.6614 25.8537 25.2213Z" fill="#E85050"/>
<path fill-rule="evenodd" clip-rule="evenodd" d="M13.4078 18.6788C14.0836 19.3552 14.0836 20.452 13.4078 21.1284L9.67041 24.8699C9.09013 25.4508 8.18205 25.5437 7.49634 25.0924C6.99762 24.7642 6.40112 24.618 5.80735 24.6786C5.21357 24.7392 4.65879 25.0028 4.23646 25.425L4.22864 25.4328C3.88573 25.7713 3.64434 26.1991 3.53188 26.6679C3.41941 27.1366 3.44035 27.6276 3.59231 28.085C3.74428 28.5425 4.02119 28.9482 4.39168 29.2562C4.76217 29.5642 5.21142 29.7621 5.68853 29.8276C6.45491 29.9328 7.05845 30.5344 7.16675 31.3012C7.22127 31.6872 7.36186 32.056 7.5781 32.3802C7.79434 32.7044 8.08068 32.9758 8.41591 33.1741C8.75114 33.3725 9.12667 33.4928 9.51467 33.5262C9.90266 33.5595 10.2932 33.505 10.6573 33.3667C11.0214 33.2284 11.3497 33.0099 11.618 32.7273C11.8862 32.4447 12.0876 32.1053 12.207 31.7343C12.3264 31.3632 12.3609 30.97 12.3079 30.5838C12.2549 30.1976 12.1158 29.8283 11.9008 29.5032C11.4467 28.8165 11.5384 27.9046 12.1201 27.3223L15.8576 23.5808C16.5333 22.9043 17.6289 22.9043 18.3046 23.5808C18.9803 24.2572 18.9803 25.354 18.3046 26.0304L15.4398 28.8983C15.5797 29.2905 15.6793 29.6972 15.7363 30.1124C15.86 31.0135 15.7795 31.931 15.5008 32.7968C15.2221 33.6626 14.7524 34.4545 14.1265 35.1139C13.5005 35.7732 12.7344 36.2831 11.8848 36.6058C11.0352 36.9284 10.124 37.0556 9.21872 36.9778C8.3134 36.9 7.43718 36.6193 6.65496 36.1564C5.87276 35.6935 5.20462 35.0604 4.70006 34.3039C4.42263 33.8879 4.19856 33.4405 4.03191 32.9723C3.36063 32.7355 2.73337 32.3807 2.18088 31.9214C1.31309 31.2 0.664479 30.2497 0.308538 29.1782C-0.0474027 28.1067 -0.0964434 26.9568 0.166974 25.8589C0.42996 24.7627 0.993887 23.762 1.79501 22.9698C2.77994 21.9869 4.07284 21.3733 5.45649 21.2321C6.3541 21.1405 7.25437 21.2514 8.09354 21.5492L10.9608 18.6788C11.6366 18.0023 12.7321 18.0023 13.4078 18.6788Z" fill="#E85050"/>
</svg>
